<svg xmlns="http://www.w3.org/2000/svg" viewBox="0 0 232.28 232.29"><defs><style>.cls-1{fill:#9c3;}.cls-2{fill:#cce699;}.cls-3,.cls-6,.cls-7{fill:none;stroke-miterlimit:3.86;}.cls-3{stroke:#9c3;}.cls-3,.cls-7{stroke-width:1.37px;}.cls-4{fill:#fff;}.cls-5{fill:#231f20;}.cls-6{stroke:#fff;stroke-width:0.35px;}.cls-7{stroke:#231f20;}</style></defs><g id="Layer_2" data-name="Layer 2"><g id="Layer_1-2" data-name="Layer 1"><circle class="cls-1" cx="116.14" cy="116.14" r="116.14" transform="translate(-7.49 224.28) rotate(-86.18)"/><circle class="cls-1" cx="116.14" cy="116.14" r="116.14" transform="translate(-7.49 224.28) rotate(-86.18)"/><circle class="cls-2" cx="116.14" cy="116.14" r="102.78" transform="translate(-0.26 0.26) rotate(-0.13)"/><circle class="cls-3" cx="116.14" cy="116.14" r="102.78" transform="translate(-0.26 0.26) rotate(-0.13)"/><circle class="cls-4" cx="116.14" cy="116.14" r="97.29" transform="translate(-15.33 214.6) rotate(-81.83)"/><circle class="cls-3" cx="116.14" cy="116.14" r="97.29" transform="translate(-15.33 214.6) rotate(-81.83)"/><path class="cls-5" d="M110.93,29.87a4.87,4.87,0,1,1,4.86,4.87A4.87,4.87,0,0,1,110.93,29.87Z"/><path class="cls-5" d="M68.57,43.66a4.87,4.87,0,1,1,6.65,1.78A4.88,4.88,0,0,1,68.57,43.66Z"/><path class="cls-5" d="M38.82,76.69a4.86,4.86,0,1,1,6.65-1.78A4.87,4.87,0,0,1,38.82,76.69Z"/><path class="cls-5" d="M24.75,115.27a4.87,4.87,0,1,1,4.86,4.86A4.87,4.87,0,0,1,24.75,115.27Z"/><path class="cls-5" d="M43.29,162.49a4.87,4.87,0,1,1,1.78-6.65A4.88,4.88,0,0,1,43.29,162.49Z"/><path class="cls-5" d="M76.33,192.24a4.87,4.87,0,1,1-1.78-6.65A4.88,4.88,0,0,1,76.33,192.24Z"/><path class="cls-5" d="M110.15,201.45a4.86,4.86,0,1,1,4.86,4.86A4.86,4.86,0,0,1,110.15,201.45Z"/><path class="cls-5" d="M162.12,187.77a4.87,4.87,0,1,1-6.64-1.78A4.87,4.87,0,0,1,162.12,187.77Z"/><path class="cls-5" d="M191.87,154.73a4.87,4.87,0,1,1-6.64,1.78A4.87,4.87,0,0,1,191.87,154.73Z"/><path class="cls-5" d="M196.32,116.05a4.87,4.87,0,1,1,4.87,4.86A4.86,4.86,0,0,1,196.32,116.05Z"/><path class="cls-5" d="M187.4,68.94a4.87,4.87,0,1,1-1.78,6.64A4.87,4.87,0,0,1,187.4,68.94Z"/><path class="cls-5" d="M154.37,39.19a4.86,4.86,0,1,1,1.78,6.64A4.86,4.86,0,0,1,154.37,39.19Z"/><path class="cls-5" d="M86.22,32A1.82,1.82,0,1,1,88,33.78,1.82,1.82,0,0,1,86.22,32Z"/><path class="cls-5" d="M77.51,35.52a1.81,1.81,0,1,1,2,1.62A1.82,1.82,0,0,1,77.51,35.52Z"/><path class="cls-5" d="M61.61,45.09a1.82,1.82,0,1,1,2.29,1.17A1.81,1.81,0,0,1,61.61,45.09Z"/><path class="cls-5" d="M54.48,51.11a1.82,1.82,0,1,1,2.4.92A1.81,1.81,0,0,1,54.48,51.11Z"/><path class="cls-5" d="M48.06,57.73a1.82,1.82,0,1,1,2.48.67A1.82,1.82,0,0,1,48.06,57.73Z"/><path class="cls-5" d="M42.33,65.06a1.82,1.82,0,1,1,2.54.4A1.82,1.82,0,0,1,42.33,65.06Z"/><path class="cls-5" d="M33.33,81.31a1.82,1.82,0,1,1,2.56-.13A1.81,1.81,0,0,1,33.33,81.31Z"/><path class="cls-5" d="M30.19,90a1.82,1.82,0,1,1,2.54-.4A1.82,1.82,0,0,1,30.19,90Z"/><path class="cls-5" d="M27.94,99.05a1.82,1.82,0,1,1,2.48-.67A1.82,1.82,0,0,1,27.94,99.05Z"/><path class="cls-5" d="M26.63,108.32a1.82,1.82,0,1,1,2.4-.93A1.82,1.82,0,0,1,26.63,108.32Z"/><path class="cls-5" d="M27,126.8a1.82,1.82,0,1,1,2.16-1.4A1.81,1.81,0,0,1,27,126.8Z"/><path class="cls-5" d="M28.57,136a1.82,1.82,0,1,1,2-1.62A1.83,1.83,0,0,1,28.57,136Z"/><circle class="cls-5" cx="31.21" cy="143.03" r="1.82"/><path class="cls-5" d="M34.6,153.55a1.81,1.81,0,1,1,1.62-2A1.82,1.82,0,0,1,34.6,153.55Z"/><path class="cls-5" d="M44.17,169.45a1.82,1.82,0,1,1,1.17-2.29A1.82,1.82,0,0,1,44.17,169.45Z"/><path class="cls-5" d="M50.19,176.58a1.82,1.82,0,1,1,.92-2.4A1.81,1.81,0,0,1,50.19,176.58Z"/><path class="cls-5" d="M56.87,183a1.82,1.82,0,1,1,.66-2.48A1.8,1.8,0,0,1,56.87,183Z"/><path class="cls-5" d="M64.19,188.73a1.82,1.82,0,1,1,.4-2.54A1.82,1.82,0,0,1,64.19,188.73Z"/><path class="cls-5" d="M80.39,197.73a1.82,1.82,0,1,1-.13-2.56A1.81,1.81,0,0,1,80.39,197.73Z"/><path class="cls-5" d="M89.17,200.87a1.82,1.82,0,1,1-.41-2.54A1.82,1.82,0,0,1,89.17,200.87Z"/><path class="cls-5" d="M98.19,203.12a1.82,1.82,0,1,1-.67-2.48A1.83,1.83,0,0,1,98.19,203.12Z"/><path class="cls-5" d="M107.4,204.43a1.82,1.82,0,1,1-.92-2.4A1.81,1.81,0,0,1,107.4,204.43Z"/><path class="cls-5" d="M125.91,204.1a1.82,1.82,0,1,1-1.4-2.16A1.81,1.81,0,0,1,125.91,204.1Z"/><path class="cls-5" d="M135.07,202.49a1.82,1.82,0,1,1-1.62-2A1.83,1.83,0,0,1,135.07,202.49Z"/><path class="cls-5" d="M140.45,199.85a1.82,1.82,0,1,1,1.82,1.82A1.82,1.82,0,0,1,140.45,199.85Z"/><path class="cls-5" d="M152.63,196.46a1.81,1.81,0,1,1-2-1.62A1.81,1.81,0,0,1,152.63,196.46Z"/><path class="cls-5" d="M168.53,186.89a1.81,1.81,0,1,1-2.29-1.17A1.82,1.82,0,0,1,168.53,186.89Z"/><path class="cls-5" d="M175.67,180.87a1.83,1.83,0,0,1-.93,2.4,1.82,1.82,0,1,1,.93-2.4Z"/><path class="cls-5" d="M182.14,174.19a1.82,1.82,0,1,1-2.49-.66A1.83,1.83,0,0,1,182.14,174.19Z"/><path class="cls-5" d="M187.87,166.87a1.82,1.82,0,1,1-2.54-.4A1.81,1.81,0,0,1,187.87,166.87Z"/><path class="cls-5" d="M196.82,150.67a1.82,1.82,0,1,1-2.57.13A1.82,1.82,0,0,1,196.82,150.67Z"/><path class="cls-5" d="M200,141.89a1.82,1.82,0,1,1-2.53.41A1.81,1.81,0,0,1,200,141.89Z"/><path class="cls-5" d="M202.26,132.87a1.82,1.82,0,1,1-2.48.67A1.82,1.82,0,0,1,202.26,132.87Z"/><path class="cls-5" d="M203.51,123.66a1.82,1.82,0,1,1-2.4.92A1.81,1.81,0,0,1,203.51,123.66Z"/><path class="cls-5" d="M203.21,105.15a1.82,1.82,0,1,1-2.16,1.4A1.81,1.81,0,0,1,203.21,105.15Z"/><path class="cls-5" d="M201.57,96a1.82,1.82,0,1,1-2,1.62A1.83,1.83,0,0,1,201.57,96Z"/><path class="cls-5" d="M197.28,88.79a1.82,1.82,0,1,1,1.82,1.82A1.81,1.81,0,0,1,197.28,88.79Z"/><path class="cls-5" d="M195.54,78.43a1.81,1.81,0,1,1-1.62,2A1.81,1.81,0,0,1,195.54,78.43Z"/><path class="cls-5" d="M186,62.53a1.81,1.81,0,1,1-1.17,2.29A1.82,1.82,0,0,1,186,62.53Z"/><path class="cls-5" d="M180,55.39a1.83,1.83,0,0,1,2.4.93A1.82,1.82,0,0,1,179,57.79,1.82,1.82,0,0,1,180,55.39Z"/><path class="cls-5" d="M173.33,48.92a1.82,1.82,0,0,1,1.82,3.15,1.82,1.82,0,1,1-1.82-3.15Z"/><path class="cls-5" d="M166,43.19a1.82,1.82,0,1,1-.4,2.54A1.81,1.81,0,0,1,166,43.19Z"/><path class="cls-5" d="M149.75,34.24a1.82,1.82,0,1,1,.13,2.57A1.82,1.82,0,0,1,149.75,34.24Z"/><path class="cls-5" d="M141,31.06a1.82,1.82,0,1,1,.4,2.53A1.81,1.81,0,0,1,141,31.06Z"/><path class="cls-5" d="M132,28.8a1.82,1.82,0,1,1,.67,2.48A1.8,1.8,0,0,1,132,28.8Z"/><path class="cls-5" d="M122.74,27.55a1.82,1.82,0,1,1,.92,2.4A1.82,1.82,0,0,1,122.74,27.55Z"/><path class="cls-5" d="M104.26,27.85a1.82,1.82,0,1,1,1.4,2.16A1.81,1.81,0,0,1,104.26,27.85Z"/><path class="cls-5" d="M95.07,29.49a1.82,1.82,0,1,1,1.62,2A1.83,1.83,0,0,1,95.07,29.49Z"/><path class="cls-2" d="M163.91,105.27a19.72,19.72,0,0,1-19.73,34.16c-.51-.3-1-.62-1.48-1A19.72,19.72,0,1,1,109.59,153c0-.59,0-1.18.08-1.76a19.72,19.72,0,1,1-29.1-21.43c.52-.3,1-.57,1.57-.81a19.72,19.72,0,1,1,4-35.92c.51.3,1,.62,1.49.95a19.72,19.72,0,1,1,33.1-14.48,17.14,17.14,0,0,1-.08,1.76,19.72,19.72,0,1,1,29.1,21.43c-.51.3-1,.57-1.56.81A19.7,19.7,0,0,1,163.91,105.27Z"/><circle class="cls-4" cx="116.35" cy="116.44" r="19.72"/></g></g></svg>