<svg xmlns="http://www.w3.org/2000/svg" viewBox="0 0 233.66 233.66"><defs><style>.cls-1{fill:#00a4f6;}.cls-2,.cls-6,.cls-7{fill:none;stroke-miterlimit:3.86;}.cls-2{stroke:#0077a6;}.cls-2,.cls-6{stroke-width:1.37px;}.cls-3{fill:#d1f0ff;}.cls-4{fill:#fff;}.cls-5{fill:#231f20;}.cls-6,.cls-7{stroke:#231f20;}</style></defs><g id="Layer_2" data-name="Layer 2"><g id="Layer_1-2" data-name="Layer 1"><circle class="cls-1" cx="116.83" cy="116.83" r="116.14" transform="translate(-16.19 18.84) rotate(-8.62)"/><circle class="cls-2" cx="116.83" cy="116.83" r="116.14" transform="translate(-16.19 18.84) rotate(-8.62)"/><circle class="cls-3" cx="116.83" cy="116.83" r="106.14" transform="translate(-10.52 222.09) rotate(-84.58)"/><circle class="cls-4" cx="116.83" cy="116.83" r="100.14"/><circle class="cls-3" cx="116.83" cy="116.83" r="62.29" transform="translate(-1.5 1.52) rotate(-0.74)"/><path class="cls-5" d="M116.83,124.86a8,8,0,1,1,8-8A8,8,0,0,1,116.83,124.86Z"/><path class="cls-6" d="M116.83,124.86a8,8,0,1,1,8-8A8,8,0,0,1,116.83,124.86Z"/><path class="cls-4" d="M110.42,40.45V29.8q-3,2.28-4,2.28a1.17,1.17,0,0,1-.87-.39,1.31,1.31,0,0,1-.38-.91,1,1,0,0,1,.37-.88,8.57,8.57,0,0,1,1.33-.73,10,10,0,0,0,2.27-1.4,9.81,9.81,0,0,0,1.5-1.65c.44-.61.73-1,.86-1.13a1,1,0,0,1,.75-.21,1.21,1.21,0,0,1,1,.48,2.1,2.1,0,0,1,.37,1.33V40c0,1.57-.53,2.35-1.61,2.35a1.49,1.49,0,0,1-1.15-.48A2.09,2.09,0,0,1,110.42,40.45Z"/><path class="cls-7" d="M110.42,40.45V29.8q-3,2.28-4,2.28a1.17,1.17,0,0,1-.87-.39,1.31,1.31,0,0,1-.38-.91,1,1,0,0,1,.37-.88,8.57,8.57,0,0,1,1.33-.73,10,10,0,0,0,2.27-1.4,9.81,9.81,0,0,0,1.5-1.65c.44-.61.73-1,.86-1.13a1,1,0,0,1,.75-.21,1.21,1.21,0,0,1,1,.48,2.1,2.1,0,0,1,.37,1.33V40c0,1.57-.53,2.35-1.61,2.35a1.49,1.49,0,0,1-1.15-.48A2.09,2.09,0,0,1,110.42,40.45Z"/><path class="cls-4" d="M121.29,39.3h6.12a2.21,2.21,0,0,1,1.39.38,1.22,1.22,0,0,1,.48,1,1.34,1.34,0,0,1-.38,1,1.51,1.51,0,0,1-1.16.4h-8.62a1.86,1.86,0,0,1-1.37-.48,1.57,1.57,0,0,1-.5-1.14,2.93,2.93,0,0,1,.32-1.12,4,4,0,0,1,.69-1.1c1-1.07,2-2,2.81-2.77a20.08,20.08,0,0,1,1.8-1.52,10.23,10.23,0,0,0,1.6-1.36,5.57,5.57,0,0,0,1-1.41,3.37,3.37,0,0,0,.33-1.41,2.6,2.6,0,0,0-.35-1.34,2.41,2.41,0,0,0-1-.92,2.77,2.77,0,0,0-1.34-.33,2.73,2.73,0,0,0-2.41,1.35,5.44,5.44,0,0,0-.4,1,3.92,3.92,0,0,1-.62,1.2,1.21,1.21,0,0,1-1,.43,1.3,1.3,0,0,1-1-.39,1.42,1.42,0,0,1-.39-1.05,4.43,4.43,0,0,1,.36-1.69,4.86,4.86,0,0,1,1.09-1.59,5.27,5.27,0,0,1,1.83-1.16,7,7,0,0,1,2.59-.44,7.57,7.57,0,0,1,3.06.56,4.63,4.63,0,0,1,1.44,1A4.87,4.87,0,0,1,129,29.68a5,5,0,0,1-.72,2.64,8.12,8.12,0,0,1-1.47,1.87c-.5.45-1.34,1.15-2.52,2.11a19.43,19.43,0,0,0-2.42,2.24A7.51,7.51,0,0,0,121.29,39.3Z"/><path class="cls-7" d="M121.29,39.3h6.12a2.21,2.21,0,0,1,1.39.38,1.22,1.22,0,0,1,.48,1,1.34,1.34,0,0,1-.38,1,1.51,1.51,0,0,1-1.16.4h-8.62a1.86,1.86,0,0,1-1.37-.48,1.57,1.57,0,0,1-.5-1.14,2.93,2.93,0,0,1,.32-1.12,4,4,0,0,1,.69-1.1c1-1.07,2-2,2.81-2.77a20.08,20.08,0,0,1,1.8-1.52,10.23,10.23,0,0,0,1.6-1.36,5.57,5.57,0,0,0,1-1.41,3.37,3.37,0,0,0,.33-1.41,2.6,2.6,0,0,0-.35-1.34,2.41,2.41,0,0,0-1-.92,2.77,2.77,0,0,0-1.34-.33,2.73,2.73,0,0,0-2.41,1.35,5.44,5.44,0,0,0-.4,1,3.92,3.92,0,0,1-.62,1.2,1.21,1.21,0,0,1-1,.43,1.3,1.3,0,0,1-1-.39,1.42,1.42,0,0,1-.39-1.05,4.43,4.43,0,0,1,.36-1.69,4.86,4.86,0,0,1,1.09-1.59,5.27,5.27,0,0,1,1.83-1.16,7,7,0,0,1,2.59-.44,7.57,7.57,0,0,1,3.06.56,4.63,4.63,0,0,1,1.44,1A4.87,4.87,0,0,1,129,29.68a5,5,0,0,1-.72,2.64,8.12,8.12,0,0,1-1.47,1.87c-.5.45-1.34,1.15-2.52,2.11a19.43,19.43,0,0,0-2.42,2.24A7.51,7.51,0,0,0,121.29,39.3Z"/><path class="cls-4" d="M161.7,50.32V39.67q-3,2.28-4,2.28a1.2,1.2,0,0,1-.87-.39,1.31,1.31,0,0,1-.38-.91,1,1,0,0,1,.38-.88,8.35,8.35,0,0,1,1.32-.73,9.77,9.77,0,0,0,2.27-1.4,9.4,9.4,0,0,0,1.5-1.65c.44-.61.73-1,.86-1.13a1,1,0,0,1,.75-.21,1.2,1.2,0,0,1,1,.48,2.1,2.1,0,0,1,.37,1.33V49.87c0,1.57-.53,2.35-1.6,2.35a1.47,1.47,0,0,1-1.15-.48A2,2,0,0,1,161.7,50.32Z"/><path class="cls-7" d="M161.7,50.32V39.67q-3,2.28-4,2.28a1.2,1.2,0,0,1-.87-.39,1.31,1.31,0,0,1-.38-.91,1,1,0,0,1,.38-.88,8.35,8.35,0,0,1,1.32-.73,9.77,9.77,0,0,0,2.27-1.4,9.4,9.4,0,0,0,1.5-1.65c.44-.61.73-1,.86-1.13a1,1,0,0,1,.75-.21,1.2,1.2,0,0,1,1,.48,2.1,2.1,0,0,1,.37,1.33V49.87c0,1.57-.53,2.35-1.6,2.35a1.47,1.47,0,0,1-1.15-.48A2,2,0,0,1,161.7,50.32Z"/><path class="cls-4" d="M193.59,80.07h6.12a2.21,2.21,0,0,1,1.39.37,1.23,1.23,0,0,1,.48,1,1.32,1.32,0,0,1-.38,1,1.5,1.5,0,0,1-1.15.4h-8.63a1.84,1.84,0,0,1-1.37-.49,1.53,1.53,0,0,1-.49-1.14,2.93,2.93,0,0,1,.31-1.12,4.1,4.1,0,0,1,.69-1.09c1-1.08,2-2,2.82-2.77a17.52,17.52,0,0,1,1.79-1.52,10.25,10.25,0,0,0,1.6-1.37,5.35,5.35,0,0,0,1-1.4,3.37,3.37,0,0,0,.33-1.41,2.57,2.57,0,0,0-.35-1.35,2.52,2.52,0,0,0-1-.92,2.81,2.81,0,0,0-1.35-.33A2.73,2.73,0,0,0,193,69.27a5.65,5.65,0,0,0-.39,1,4.1,4.1,0,0,1-.62,1.21,1.24,1.24,0,0,1-1,.42,1.34,1.34,0,0,1-1-.38,1.43,1.43,0,0,1-.39-1.06,4.23,4.23,0,0,1,.37-1.68,4.82,4.82,0,0,1,1.08-1.6A5.4,5.4,0,0,1,192.88,66a7.06,7.06,0,0,1,2.59-.44,7.57,7.57,0,0,1,3.06.56,4.62,4.62,0,0,1,1.45,1,4.79,4.79,0,0,1,1,1.52,4.57,4.57,0,0,1,.35,1.79,5,5,0,0,1-.72,2.64A8.26,8.26,0,0,1,199.1,75c-.5.45-1.34,1.16-2.51,2.12a18,18,0,0,0-2.42,2.24A6.52,6.52,0,0,0,193.59,80.07Z"/><path class="cls-7" d="M193.59,80.07h6.12a2.21,2.21,0,0,1,1.39.37,1.23,1.23,0,0,1,.48,1,1.32,1.32,0,0,1-.38,1,1.5,1.5,0,0,1-1.15.4h-8.63a1.84,1.84,0,0,1-1.37-.49,1.53,1.53,0,0,1-.49-1.14,2.93,2.93,0,0,1,.31-1.12,4.1,4.1,0,0,1,.69-1.09c1-1.08,2-2,2.82-2.77a17.52,17.52,0,0,1,1.79-1.52,10.25,10.25,0,0,0,1.6-1.37,5.35,5.35,0,0,0,1-1.4,3.37,3.37,0,0,0,.33-1.41,2.57,2.57,0,0,0-.35-1.35,2.52,2.52,0,0,0-1-.92,2.81,2.81,0,0,0-1.35-.33A2.73,2.73,0,0,0,193,69.27a5.65,5.65,0,0,0-.39,1,4.1,4.1,0,0,1-.62,1.21,1.24,1.24,0,0,1-1,.42,1.34,1.34,0,0,1-1-.38,1.43,1.43,0,0,1-.39-1.06,4.23,4.23,0,0,1,.37-1.68,4.82,4.82,0,0,1,1.08-1.6A5.4,5.4,0,0,1,192.88,66a7.06,7.06,0,0,1,2.59-.44,7.57,7.57,0,0,1,3.06.56,4.62,4.62,0,0,1,1.45,1,4.79,4.79,0,0,1,1,1.52,4.57,4.57,0,0,1,.35,1.79,5,5,0,0,1-.72,2.64A8.26,8.26,0,0,1,199.1,75c-.5.45-1.34,1.16-2.51,2.12a18,18,0,0,0-2.42,2.24A6.52,6.52,0,0,0,193.59,80.07Z"/><path class="cls-4" d="M204.15,114.71a2.87,2.87,0,0,0,1.86-.63,2.21,2.21,0,0,0,.78-1.82,2.18,2.18,0,0,0-.62-1.55,2.23,2.23,0,0,0-1.68-.65,2.83,2.83,0,0,0-1.17.2,1.88,1.88,0,0,0-.74.53,3.8,3.8,0,0,0-.51.84c-.16.34-.3.67-.44,1a.77.77,0,0,1-.42.39,1.71,1.71,0,0,1-.7.14,1.19,1.19,0,0,1-.86-.38,1.35,1.35,0,0,1-.4-1,2.7,2.7,0,0,1,.37-1.28,4.88,4.88,0,0,1,1.08-1.29,5.35,5.35,0,0,1,1.77-1,6.94,6.94,0,0,1,2.35-.37,6.53,6.53,0,0,1,2.08.31,4.86,4.86,0,0,1,1.63.89,3.86,3.86,0,0,1,1.39,3,3.75,3.75,0,0,1-.51,2A6.82,6.82,0,0,1,208,115.7a6.37,6.37,0,0,1,1.54,1.12,4.29,4.29,0,0,1,.95,1.4,4.34,4.34,0,0,1,.32,1.66,5.25,5.25,0,0,1-.43,2.06,5.42,5.42,0,0,1-1.26,1.77,6.05,6.05,0,0,1-2,1.22,7,7,0,0,1-2.53.44,6.19,6.19,0,0,1-2.52-.5,5.76,5.76,0,0,1-2.92-2.83,3.28,3.28,0,0,1-.37-1.33,1.43,1.43,0,0,1,.44-1.09,1.52,1.52,0,0,1,1.1-.42,1.16,1.16,0,0,1,.63.19,1,1,0,0,1,.4.47,8,8,0,0,0,1.3,2.42,2.52,2.52,0,0,0,2,.79,3,3,0,0,0,1.4-.36,2.89,2.89,0,0,0,1.11-1.06,3,3,0,0,0,.44-1.63,3,3,0,0,0-.75-2.15,2.77,2.77,0,0,0-2.09-.78c-.15,0-.39,0-.72,0l-.64,0a1.37,1.37,0,0,1-1-.32,1.25,1.25,0,0,1,.07-1.8,1.94,1.94,0,0,1,1.25-.35Z"/><path class="cls-7" d="M204.15,114.71a2.87,2.87,0,0,0,1.86-.63,2.21,2.21,0,0,0,.78-1.82,2.18,2.18,0,0,0-.62-1.55,2.23,2.23,0,0,0-1.68-.65,2.83,2.83,0,0,0-1.17.2,1.88,1.88,0,0,0-.74.53,3.8,3.8,0,0,0-.51.84c-.16.34-.3.67-.44,1a.77.77,0,0,1-.42.39,1.71,1.71,0,0,1-.7.14,1.19,1.19,0,0,1-.86-.38,1.35,1.35,0,0,1-.4-1,2.7,2.7,0,0,1,.37-1.28,4.88,4.88,0,0,1,1.08-1.29,5.35,5.35,0,0,1,1.77-1,6.94,6.94,0,0,1,2.35-.37,6.53,6.53,0,0,1,2.08.31,4.86,4.86,0,0,1,1.63.89,3.86,3.86,0,0,1,1.39,3,3.75,3.75,0,0,1-.51,2A6.82,6.82,0,0,1,208,115.7a6.37,6.37,0,0,1,1.54,1.12,4.29,4.29,0,0,1,.95,1.4,4.34,4.34,0,0,1,.32,1.66,5.25,5.25,0,0,1-.43,2.06,5.42,5.42,0,0,1-1.26,1.77,6.05,6.05,0,0,1-2,1.22,7,7,0,0,1-2.53.44,6.19,6.19,0,0,1-2.52-.5,5.76,5.76,0,0,1-2.92-2.83,3.28,3.28,0,0,1-.37-1.33,1.43,1.43,0,0,1,.44-1.09,1.52,1.52,0,0,1,1.1-.42,1.16,1.16,0,0,1,.63.19,1,1,0,0,1,.4.47,8,8,0,0,0,1.3,2.42,2.52,2.52,0,0,0,2,.79,3,3,0,0,0,1.4-.36,2.89,2.89,0,0,0,1.11-1.06,3,3,0,0,0,.44-1.63,3,3,0,0,0-.75-2.15,2.77,2.77,0,0,0-2.09-.78c-.15,0-.39,0-.72,0l-.64,0a1.37,1.37,0,0,1-1-.32,1.25,1.25,0,0,1,.07-1.8,1.94,1.94,0,0,1,1.25-.35Z"/><path class="cls-4" d="M196.64,167.8v-2.18h-5.88a2.4,2.4,0,0,1-1.67-.5,1.75,1.75,0,0,1-.56-1.37,1.2,1.2,0,0,1,.09-.45,2.15,2.15,0,0,1,.24-.48c.11-.17.23-.33.34-.49l.44-.57,6.21-8.31a9,9,0,0,1,1-1.18,1.3,1.3,0,0,1,.94-.37c1.19,0,1.78.68,1.78,2V163h.51a3.6,3.6,0,0,1,1.44.24,1.06,1.06,0,0,1,.55,1.08,1.09,1.09,0,0,1-.45,1,2.29,2.29,0,0,1-1.33.31h-.72v2.18a1.92,1.92,0,0,1-.4,1.34,1.33,1.33,0,0,1-1.06.44,1.35,1.35,0,0,1-1.06-.45A1.92,1.92,0,0,1,196.64,167.8Zm-5-4.79h5v-6.82Z"/><path class="cls-7" d="M196.64,167.8v-2.18h-5.88a2.4,2.4,0,0,1-1.67-.5,1.75,1.75,0,0,1-.56-1.37,1.2,1.2,0,0,1,.09-.45,2.15,2.15,0,0,1,.24-.48c.11-.17.23-.33.34-.49l.44-.57,6.21-8.31a9,9,0,0,1,1-1.18,1.3,1.3,0,0,1,.94-.37c1.19,0,1.78.68,1.78,2V163h.51a3.6,3.6,0,0,1,1.44.24,1.06,1.06,0,0,1,.55,1.08,1.09,1.09,0,0,1-.45,1,2.29,2.29,0,0,1-1.33.31h-.72v2.18a1.92,1.92,0,0,1-.4,1.34,1.33,1.33,0,0,1-1.06.44,1.35,1.35,0,0,1-1.06-.45A1.92,1.92,0,0,1,196.64,167.8Zm-5-4.79h5v-6.82Z"/><path class="cls-4" d="M166,186.63h-5.57l-.67,3.8a6.53,6.53,0,0,1,3.07-.89A5.33,5.33,0,0,1,165,190a5.33,5.33,0,0,1,2.87,2.93,5.66,5.66,0,0,1,.42,2.19,6.32,6.32,0,0,1-.76,3.09,5.67,5.67,0,0,1-2.19,2.21,6.53,6.53,0,0,1-3.31.82,6.7,6.7,0,0,1-3.41-.77,4.89,4.89,0,0,1-1.85-1.78,3.78,3.78,0,0,1-.54-1.75,1.35,1.35,0,0,1,1.33-1.27,1.57,1.57,0,0,1,1.47,1.14,4,4,0,0,0,1.26,1.62A3,3,0,0,0,162,199a2.75,2.75,0,0,0,1.58-.47,3.06,3.06,0,0,0,1-1.29,4.61,4.61,0,0,0,.37-1.86,4.37,4.37,0,0,0-.4-1.93,2.83,2.83,0,0,0-1.07-1.19,2.91,2.91,0,0,0-1.49-.39,3,3,0,0,0-1.44.25,12.7,12.7,0,0,0-1.25.86,2.44,2.44,0,0,1-1.34.61,1.44,1.44,0,0,1-1-.41,1.25,1.25,0,0,1-.44-1s0-.3.12-.79l1-5.61a2.71,2.71,0,0,1,.61-1.47,2,2,0,0,1,1.45-.46H166c1.21,0,1.82.47,1.82,1.4a1.25,1.25,0,0,1-.44,1A2,2,0,0,1,166,186.63Z"/><path class="cls-7" d="M166,186.63h-5.57l-.67,3.8a6.53,6.53,0,0,1,3.07-.89A5.33,5.33,0,0,1,165,190a5.33,5.33,0,0,1,2.87,2.93,5.66,5.66,0,0,1,.42,2.19,6.32,6.32,0,0,1-.76,3.09,5.67,5.67,0,0,1-2.19,2.21,6.53,6.53,0,0,1-3.31.82,6.7,6.7,0,0,1-3.41-.77,4.89,4.89,0,0,1-1.85-1.78,3.78,3.78,0,0,1-.54-1.75,1.35,1.35,0,0,1,1.33-1.27,1.57,1.57,0,0,1,1.47,1.14,4,4,0,0,0,1.26,1.62A3,3,0,0,0,162,199a2.75,2.75,0,0,0,1.58-.47,3.06,3.06,0,0,0,1-1.29,4.61,4.61,0,0,0,.37-1.86,4.37,4.37,0,0,0-.4-1.93,2.83,2.83,0,0,0-1.07-1.19,2.91,2.91,0,0,0-1.49-.39,3,3,0,0,0-1.44.25,12.7,12.7,0,0,0-1.25.86,2.44,2.44,0,0,1-1.34.61,1.44,1.44,0,0,1-1-.41,1.25,1.25,0,0,1-.44-1s0-.3.12-.79l1-5.61a2.71,2.71,0,0,1,.61-1.47,2,2,0,0,1,1.45-.46H166c1.21,0,1.82.47,1.82,1.4a1.25,1.25,0,0,1-.44,1A2,2,0,0,1,166,186.63Z"/><path class="cls-4" d="M116,201.15a5.38,5.38,0,0,1,1.73-1.41,4.76,4.76,0,0,1,2.1-.45,4.9,4.9,0,0,1,3.7,1.59,5.58,5.58,0,0,1,1.1,1.82,6.35,6.35,0,0,1,.38,2.17,6,6,0,0,1-.75,3,5.48,5.48,0,0,1-2.11,2.11,6.19,6.19,0,0,1-3.06.75,5.93,5.93,0,0,1-3.4-1,6,6,0,0,1-2.19-2.84,12.39,12.39,0,0,1-.75-4.59,15.38,15.38,0,0,1,.46-4,8.27,8.27,0,0,1,1.31-2.9,5.62,5.62,0,0,1,2.07-1.73,6.34,6.34,0,0,1,2.78-.58,5.7,5.7,0,0,1,2.64.58,4.46,4.46,0,0,1,1.72,1.45,3,3,0,0,1,.58,1.66,1.25,1.25,0,0,1-.36.87,1.2,1.2,0,0,1-.92.39,1.56,1.56,0,0,1-.92-.3,1.88,1.88,0,0,1-.62-.87,2.52,2.52,0,0,0-.85-1.13,2.29,2.29,0,0,0-1.36-.42,2.42,2.42,0,0,0-1.24.36,3.27,3.27,0,0,0-1,1A9.07,9.07,0,0,0,116,201.15Zm3.16,7.28a2.4,2.4,0,0,0,2-1,3.9,3.9,0,0,0,.77-2.53,4.35,4.35,0,0,0-.36-1.84,2.68,2.68,0,0,0-1-1.17,2.51,2.51,0,0,0-1.39-.4,2.77,2.77,0,0,0-1.39.38,3,3,0,0,0-1.07,1.12,3.5,3.5,0,0,0-.4,1.72,4.13,4.13,0,0,0,.82,2.63A2.48,2.48,0,0,0,119.17,208.43Z"/><path class="cls-7" d="M116,201.15a5.38,5.38,0,0,1,1.73-1.41,4.76,4.76,0,0,1,2.1-.45,4.9,4.9,0,0,1,3.7,1.59,5.58,5.58,0,0,1,1.1,1.82,6.35,6.35,0,0,1,.38,2.17,6,6,0,0,1-.75,3,5.48,5.48,0,0,1-2.11,2.11,6.19,6.19,0,0,1-3.06.75,5.93,5.93,0,0,1-3.4-1,6,6,0,0,1-2.19-2.84,12.39,12.39,0,0,1-.75-4.59,15.38,15.38,0,0,1,.46-4,8.27,8.27,0,0,1,1.31-2.9,5.62,5.62,0,0,1,2.07-1.73,6.34,6.34,0,0,1,2.78-.58,5.7,5.7,0,0,1,2.64.58,4.46,4.46,0,0,1,1.72,1.45,3,3,0,0,1,.58,1.66,1.25,1.25,0,0,1-.36.87,1.2,1.2,0,0,1-.92.39,1.56,1.56,0,0,1-.92-.3,1.88,1.88,0,0,1-.62-.87,2.52,2.52,0,0,0-.85-1.13,2.29,2.29,0,0,0-1.36-.42,2.42,2.42,0,0,0-1.24.36,3.27,3.27,0,0,0-1,1A9.07,9.07,0,0,0,116,201.15Zm3.16,7.28a2.4,2.4,0,0,0,2-1,3.9,3.9,0,0,0,.77-2.53,4.35,4.35,0,0,0-.36-1.84,2.68,2.68,0,0,0-1-1.17,2.51,2.51,0,0,0-1.39-.4,2.77,2.77,0,0,0-1.39.38,3,3,0,0,0-1.07,1.12,3.5,3.5,0,0,0-.4,1.72,4.13,4.13,0,0,0,.82,2.63A2.48,2.48,0,0,0,119.17,208.43Z"/><path class="cls-4" d="M70.61,183.13h7.81a3,3,0,0,1,1.63.35,1.33,1.33,0,0,1,.5,1.16,2.5,2.5,0,0,1-.59,1.3c-.4.54-.85,1.14-1.35,1.79a19.88,19.88,0,0,0-1.56,2.43,19.11,19.11,0,0,0-1.47,3.55,15.55,15.55,0,0,0-.4,1.54c-.08.4-.16.93-.26,1.58s-.17,1.14-.25,1.48A3.36,3.36,0,0,1,74,200a1.6,1.6,0,0,1-1.21.47,1.43,1.43,0,0,1-1.14-.5,2.17,2.17,0,0,1-.44-1.47,9.21,9.21,0,0,1,.32-2,23.61,23.61,0,0,1,1-3.09,30.15,30.15,0,0,1,1.79-3.68,28.43,28.43,0,0,1,2.55-3.77H70.61a2.5,2.5,0,0,1-1.48-.36,1.3,1.3,0,0,1-.48-1.12c0-.54.17-.89.51-1A3.55,3.55,0,0,1,70.61,183.13Z"/><path class="cls-7" d="M70.61,183.13h7.81a3,3,0,0,1,1.63.35,1.33,1.33,0,0,1,.5,1.16,2.5,2.5,0,0,1-.59,1.3c-.4.54-.85,1.14-1.35,1.79a19.88,19.88,0,0,0-1.56,2.43,19.11,19.11,0,0,0-1.47,3.55,15.55,15.55,0,0,0-.4,1.54c-.08.4-.16.93-.26,1.58s-.17,1.14-.25,1.48A3.36,3.36,0,0,1,74,200a1.6,1.6,0,0,1-1.21.47,1.43,1.43,0,0,1-1.14-.5,2.17,2.17,0,0,1-.44-1.47,9.21,9.21,0,0,1,.32-2,23.61,23.61,0,0,1,1-3.09,30.15,30.15,0,0,1,1.79-3.68,28.43,28.43,0,0,1,2.55-3.77H70.61a2.5,2.5,0,0,1-1.48-.36,1.3,1.3,0,0,1-.48-1.12c0-.54.17-.89.51-1A3.55,3.55,0,0,1,70.61,183.13Z"/><path class="cls-4" d="M37.44,156.1a4.11,4.11,0,0,1,.64-2.21A4.47,4.47,0,0,1,40,152.23a6.44,6.44,0,0,1,2.89-.62,7.57,7.57,0,0,1,2.45.36,5,5,0,0,1,1.76,1,4.07,4.07,0,0,1,1,1.44,4.31,4.31,0,0,1,.34,1.71,3.62,3.62,0,0,1-.59,2,4.35,4.35,0,0,1-1.76,1.48,4.84,4.84,0,0,1,1.65,1,4.08,4.08,0,0,1,1,1.45,4.7,4.7,0,0,1,.34,1.83,5.1,5.1,0,0,1-.72,2.68,4.94,4.94,0,0,1-2.1,1.88,7.35,7.35,0,0,1-3.26.68,7.58,7.58,0,0,1-3.33-.68,4.87,4.87,0,0,1-2.08-1.87,5.11,5.11,0,0,1-.71-2.66,4.3,4.3,0,0,1,3-4.32A3.72,3.72,0,0,1,37.44,156.1Zm8.4,7.75a3.22,3.22,0,0,0-.37-1.59,2.5,2.5,0,0,0-1.06-1,3.19,3.19,0,0,0-1.52-.36,2.74,2.74,0,0,0-2,.8,3,3,0,0,0-.81,2.22,3.4,3.4,0,0,0,.38,1.62,2.68,2.68,0,0,0,1,1.07A2.77,2.77,0,0,0,43,167a2.85,2.85,0,0,0,1.48-.39,2.78,2.78,0,0,0,1-1.09A3.4,3.4,0,0,0,45.84,163.85Zm-2.93-10a2.37,2.37,0,0,0-1.77.69,2.4,2.4,0,0,0-.67,1.76,2.2,2.2,0,0,0,.69,1.66,2.43,2.43,0,0,0,1.78.67,2.7,2.7,0,0,0,1-.18,2.26,2.26,0,0,0,.77-.49,2,2,0,0,0,.5-.74,2.35,2.35,0,0,0,.17-.94,2.43,2.43,0,0,0-.31-1.24,2.14,2.14,0,0,0-.87-.87A2.57,2.57,0,0,0,42.91,153.84Z"/><path class="cls-7" d="M37.44,156.1a4.11,4.11,0,0,1,.64-2.21A4.47,4.47,0,0,1,40,152.23a6.44,6.44,0,0,1,2.89-.62,7.57,7.57,0,0,1,2.45.36,5,5,0,0,1,1.76,1,4.07,4.07,0,0,1,1,1.44,4.31,4.31,0,0,1,.34,1.71,3.62,3.62,0,0,1-.59,2,4.35,4.35,0,0,1-1.76,1.48,4.84,4.84,0,0,1,1.65,1,4.08,4.08,0,0,1,1,1.45,4.7,4.7,0,0,1,.34,1.83,5.1,5.1,0,0,1-.72,2.68,4.94,4.94,0,0,1-2.1,1.88,7.35,7.35,0,0,1-3.26.68,7.58,7.58,0,0,1-3.33-.68,4.87,4.87,0,0,1-2.08-1.87,5.11,5.11,0,0,1-.71-2.66,4.3,4.3,0,0,1,3-4.32A3.72,3.72,0,0,1,37.44,156.1Zm8.4,7.75a3.22,3.22,0,0,0-.37-1.59,2.5,2.5,0,0,0-1.06-1,3.19,3.19,0,0,0-1.52-.36,2.74,2.74,0,0,0-2,.8,3,3,0,0,0-.81,2.22,3.4,3.4,0,0,0,.38,1.62,2.68,2.68,0,0,0,1,1.07A2.77,2.77,0,0,0,43,167a2.85,2.85,0,0,0,1.48-.39,2.78,2.78,0,0,0,1-1.09A3.4,3.4,0,0,0,45.84,163.85Zm-2.93-10a2.37,2.37,0,0,0-1.77.69,2.4,2.4,0,0,0-.67,1.76,2.2,2.2,0,0,0,.69,1.66,2.43,2.43,0,0,0,1.78.67,2.7,2.7,0,0,0,1-.18,2.26,2.26,0,0,0,.77-.49,2,2,0,0,0,.5-.74,2.35,2.35,0,0,0,.17-.94,2.43,2.43,0,0,0-.31-1.24,2.14,2.14,0,0,0-.87-.87A2.57,2.57,0,0,0,42.91,153.84Z"/><path class="cls-4" d="M33.21,116.66A5.44,5.44,0,0,1,31.48,118a4.81,4.81,0,0,1-2.12.46,5.06,5.06,0,0,1-2.06-.42,4.94,4.94,0,0,1-1.65-1.2,5.33,5.33,0,0,1-1.08-1.79,6.44,6.44,0,0,1,.05-4.44,5.53,5.53,0,0,1,1.21-1.88,5.46,5.46,0,0,1,1.87-1.24,6.18,6.18,0,0,1,2.4-.45,6.25,6.25,0,0,1,2.69.55,5.36,5.36,0,0,1,2,1.6A7.52,7.52,0,0,1,36,111.87a13.69,13.69,0,0,1,.43,3.61,15.64,15.64,0,0,1-.45,4,8.35,8.35,0,0,1-1.33,2.88,5.53,5.53,0,0,1-2.1,1.74,6.42,6.42,0,0,1-2.76.56,5.78,5.78,0,0,1-2.65-.57,4.6,4.6,0,0,1-1.72-1.44,3,3,0,0,1-.58-1.66,1.26,1.26,0,0,1,.36-.88,1.24,1.24,0,0,1,.93-.38,1.5,1.5,0,0,1,.92.29,1.73,1.73,0,0,1,.63.86,2.38,2.38,0,0,0,.85,1.13,2.3,2.3,0,0,0,1.35.42,2.49,2.49,0,0,0,1.27-.34,3,3,0,0,0,1-1A9.29,9.29,0,0,0,33.21,116.66Zm-.27-3.58a4.83,4.83,0,0,0-.22-1.47,3.82,3.82,0,0,0-.61-1.17,2.78,2.78,0,0,0-.94-.77,2.52,2.52,0,0,0-1.19-.29,2.36,2.36,0,0,0-1.89,1,3.93,3.93,0,0,0-.77,2.52,3.8,3.8,0,0,0,.77,2.49,2.47,2.47,0,0,0,2,.92,2.67,2.67,0,0,0,1.39-.38,2.93,2.93,0,0,0,1.08-1.1A3.39,3.39,0,0,0,32.94,113.08Z"/><path class="cls-7" d="M33.21,116.66A5.44,5.44,0,0,1,31.48,118a4.81,4.81,0,0,1-2.12.46,5.06,5.06,0,0,1-2.06-.42,4.94,4.94,0,0,1-1.65-1.2,5.33,5.33,0,0,1-1.08-1.79,6.44,6.44,0,0,1,.05-4.44,5.53,5.53,0,0,1,1.21-1.88,5.46,5.46,0,0,1,1.87-1.24,6.18,6.18,0,0,1,2.4-.45,6.25,6.25,0,0,1,2.69.55,5.36,5.36,0,0,1,2,1.6A7.52,7.52,0,0,1,36,111.87a13.69,13.69,0,0,1,.43,3.61,15.64,15.64,0,0,1-.45,4,8.35,8.35,0,0,1-1.33,2.88,5.53,5.53,0,0,1-2.1,1.74,6.42,6.42,0,0,1-2.76.56,5.78,5.78,0,0,1-2.65-.57,4.6,4.6,0,0,1-1.72-1.44,3,3,0,0,1-.58-1.66,1.26,1.26,0,0,1,.36-.88,1.24,1.24,0,0,1,.93-.38,1.5,1.5,0,0,1,.92.29,1.73,1.73,0,0,1,.63.86,2.38,2.38,0,0,0,.85,1.13,2.3,2.3,0,0,0,1.35.42,2.49,2.49,0,0,0,1.27-.34,3,3,0,0,0,1-1A9.29,9.29,0,0,0,33.21,116.66Zm-.27-3.58a4.83,4.83,0,0,0-.22-1.47,3.82,3.82,0,0,0-.61-1.17,2.78,2.78,0,0,0-.94-.77,2.52,2.52,0,0,0-1.19-.29,2.36,2.36,0,0,0-1.89,1,3.93,3.93,0,0,0-.77,2.52,3.8,3.8,0,0,0,.77,2.49,2.47,2.47,0,0,0,2,.92,2.67,2.67,0,0,0,1.39-.38,2.93,2.93,0,0,0,1.08-1.1A3.39,3.39,0,0,0,32.94,113.08Z"/><path class="cls-4" d="M33.88,84.24V73.58c-2,1.52-3.32,2.29-4,2.29a1.22,1.22,0,0,1-.88-.4,1.27,1.27,0,0,1-.38-.91,1,1,0,0,1,.38-.87A8.35,8.35,0,0,1,30.32,73a8.87,8.87,0,0,0,3.77-3.06c.44-.61.73-1,.86-1.12a1,1,0,0,1,.75-.21,1.2,1.2,0,0,1,1,.48,2.09,2.09,0,0,1,.38,1.32V83.78c0,1.57-.54,2.36-1.61,2.36a1.47,1.47,0,0,1-1.15-.48A2.06,2.06,0,0,1,33.88,84.24Z"/><path class="cls-7" d="M33.88,84.24V73.58c-2,1.52-3.32,2.29-4,2.29a1.22,1.22,0,0,1-.88-.4,1.27,1.27,0,0,1-.38-.91,1,1,0,0,1,.38-.87A8.35,8.35,0,0,1,30.32,73a8.87,8.87,0,0,0,3.77-3.06c.44-.61.73-1,.86-1.12a1,1,0,0,1,.75-.21,1.2,1.2,0,0,1,1,.48,2.09,2.09,0,0,1,.38,1.32V83.78c0,1.57-.54,2.36-1.61,2.36a1.47,1.47,0,0,1-1.15-.48A2.06,2.06,0,0,1,33.88,84.24Z"/><path class="cls-4" d="M52.52,77.42a19.88,19.88,0,0,1-.23,3.31,7.8,7.8,0,0,1-.87,2.5,5.78,5.78,0,0,1-2.06,2.13,5.43,5.43,0,0,1-2.82.75,5.37,5.37,0,0,1-3.19-1,6.21,6.21,0,0,1-2.13-2.79,11.09,11.09,0,0,1-.53-2.15,18.39,18.39,0,0,1-.17-2.55,25.18,25.18,0,0,1,.19-3.18A11.08,11.08,0,0,1,41.29,72a5.54,5.54,0,0,1,2-2.57,5.47,5.47,0,0,1,3.14-.89,5.85,5.85,0,0,1,2.19.4,4.92,4.92,0,0,1,1.73,1.14A6.53,6.53,0,0,1,51.63,72,13.32,13.32,0,0,1,52.52,77.42Zm-3.21-.23a19.67,19.67,0,0,0-.26-3.51,4.23,4.23,0,0,0-.87-2.06,2.1,2.1,0,0,0-1.69-.7,2.18,2.18,0,0,0-2.15,1.56,14.27,14.27,0,0,0-.6,4.8A20.83,20.83,0,0,0,44,80.89,4.58,4.58,0,0,0,44.86,83a2.28,2.28,0,0,0,3.35,0,4.7,4.7,0,0,0,.85-2.15A21.08,21.08,0,0,0,49.31,77.19Z"/><path class="cls-7" d="M52.52,77.42a19.88,19.88,0,0,1-.23,3.31,7.8,7.8,0,0,1-.87,2.5,5.78,5.78,0,0,1-2.06,2.13,5.43,5.43,0,0,1-2.82.75,5.37,5.37,0,0,1-3.19-1,6.21,6.21,0,0,1-2.13-2.79,11.09,11.09,0,0,1-.53-2.15,18.39,18.39,0,0,1-.17-2.55,25.18,25.18,0,0,1,.19-3.18A11.08,11.08,0,0,1,41.29,72a5.54,5.54,0,0,1,2-2.57,5.47,5.47,0,0,1,3.14-.89,5.85,5.85,0,0,1,2.19.4,4.92,4.92,0,0,1,1.73,1.14A6.53,6.53,0,0,1,51.63,72,13.32,13.32,0,0,1,52.52,77.42Zm-3.21-.23a19.67,19.67,0,0,0-.26-3.51,4.23,4.23,0,0,0-.87-2.06,2.1,2.1,0,0,0-1.69-.7,2.18,2.18,0,0,0-2.15,1.56,14.27,14.27,0,0,0-.6,4.8A20.83,20.83,0,0,0,44,80.89,4.58,4.58,0,0,0,44.86,83a2.28,2.28,0,0,0,3.35,0,4.7,4.7,0,0,0,.85-2.15A21.08,21.08,0,0,0,49.31,77.19Z"/><path class="cls-4" d="M65,51.47V40.82c-2,1.52-3.32,2.28-4,2.28a1.17,1.17,0,0,1-.87-.39,1.26,1.26,0,0,1-.39-.91,1,1,0,0,1,.38-.88,8.35,8.35,0,0,1,1.32-.73,9.77,9.77,0,0,0,2.27-1.4,9.46,9.46,0,0,0,1.51-1.65c.44-.61.72-1,.85-1.13a1.05,1.05,0,0,1,.75-.21,1.2,1.2,0,0,1,1,.48,2.1,2.1,0,0,1,.38,1.33V51c0,1.57-.54,2.35-1.61,2.35a1.47,1.47,0,0,1-1.15-.48A2,2,0,0,1,65,51.47Z"/><path class="cls-7" d="M65,51.47V40.82c-2,1.52-3.32,2.28-4,2.28a1.17,1.17,0,0,1-.87-.39,1.26,1.26,0,0,1-.39-.91,1,1,0,0,1,.38-.88,8.35,8.35,0,0,1,1.32-.73,9.77,9.77,0,0,0,2.27-1.4,9.46,9.46,0,0,0,1.51-1.65c.44-.61.72-1,.85-1.13a1.05,1.05,0,0,1,.75-.21,1.2,1.2,0,0,1,1,.48,2.1,2.1,0,0,1,.38,1.33V51c0,1.57-.54,2.35-1.61,2.35a1.47,1.47,0,0,1-1.15-.48A2,2,0,0,1,65,51.47Z"/><path class="cls-4" d="M76.26,51.47V40.82c-2,1.52-3.32,2.28-4,2.28a1.17,1.17,0,0,1-.87-.39A1.26,1.26,0,0,1,71,41.8a1,1,0,0,1,.38-.88,8.35,8.35,0,0,1,1.32-.73A9.56,9.56,0,0,0,75,38.79a9.46,9.46,0,0,0,1.51-1.65c.44-.61.72-1,.85-1.13a1.06,1.06,0,0,1,.76-.21,1.19,1.19,0,0,1,1,.48,2.1,2.1,0,0,1,.38,1.33V51c0,1.57-.54,2.35-1.61,2.35a1.47,1.47,0,0,1-1.15-.48A2,2,0,0,1,76.26,51.47Z"/><path class="cls-7" d="M76.26,51.47V40.82c-2,1.52-3.32,2.28-4,2.28a1.17,1.17,0,0,1-.87-.39A1.26,1.26,0,0,1,71,41.8a1,1,0,0,1,.38-.88,8.35,8.35,0,0,1,1.32-.73A9.56,9.56,0,0,0,75,38.79a9.46,9.46,0,0,0,1.51-1.65c.44-.61.72-1,.85-1.13a1.06,1.06,0,0,1,.76-.21,1.19,1.19,0,0,1,1,.48,2.1,2.1,0,0,1,.38,1.33V51c0,1.57-.54,2.35-1.61,2.35a1.47,1.47,0,0,1-1.15-.48A2,2,0,0,1,76.26,51.47Z"/></g></g></svg>